<svg width="48" height="48" viewBox="0 0 48 48" fill="none" xmlns="http://www.w3.org/2000/svg">
<circle cx="24" cy="24" r="24" fill="white"/>
<path d="M24 24C25.3845 24 26.7378 23.5895 27.889 22.8203C29.0401 22.0511 29.9373 20.9579 30.4672 19.6788C30.997 18.3997 31.1356 16.9922 30.8655 15.6344C30.5954 14.2765 29.9287 13.0292 28.9497 12.0503C27.9708 11.0713 26.7235 10.4046 25.3656 10.1345C24.0078 9.86441 22.6003 10.003 21.3212 10.5328C20.0421 11.0627 18.9489 11.9599 18.1797 13.111C17.4105 14.2622 17 15.6155 17 17C17 18.8565 17.7375 20.637 19.0503 21.9497C20.363 23.2625 22.1435 24 24 24ZM24 12C24.9889 12 25.9556 12.2932 26.7779 12.8427C27.6001 13.3921 28.241 14.173 28.6194 15.0866C28.9978 16.0002 29.0969 17.0055 28.9039 17.9755C28.711 18.9454 28.2348 19.8363 27.5355 20.5355C26.8363 21.2348 25.9454 21.711 24.9755 21.9039C24.0055 22.0969 23.0002 21.9978 22.0866 21.6194C21.173 21.241 20.3921 20.6001 19.8427 19.7779C19.2932 18.9556 19 17.9889 19 17C19 15.6739 19.5268 14.4022 20.4645 13.4645C21.4021 12.5268 22.6739 12 24 12Z" fill="black"/>
<path d="M25 26H23C20.0826 26 17.2847 27.1589 15.2218 29.2218C13.1589 31.2847 12 34.0826 12 37C12 37.2652 12.1054 37.5196 12.2929 37.7071C12.4804 37.8946 12.7348 38 13 38H35C35.2652 38 35.5196 37.8946 35.7071 37.7071C35.8946 37.5196 36 37.2652 36 37C36 34.0826 34.8411 31.2847 32.7782 29.2218C30.7153 27.1589 27.9174 26 25 26ZM14.06 36C14.3059 33.8006 15.3535 31.769 17.0027 30.2932C18.6518 28.8175 20.7869 28.0011 23 28H25C27.2131 28.0011 29.3482 28.8175 30.9973 30.2932C32.6465 31.769 33.6941 33.8006 33.94 36H14.06Z" fill="black"/>
</svg>
